<svg width="827" height="1000" viewBox="0 0 827 1000" fill="none" xmlns="http://www.w3.org/2000/svg">
<path d="M415.108 727.368L524.063 855.081C523.839 855.063 523.595 855.049 523.331 855.037C521.819 854.97 519.575 854.987 516.681 855.081C510.887 855.27 502.444 855.766 491.946 856.518C470.947 858.021 441.706 860.546 408.953 863.671C343.478 869.919 263.957 878.569 208.181 886.26C150.597 876.651 106.451 856.495 76.6996 838.74C61.8176 829.859 50.5383 821.579 42.9821 815.522C39.204 812.494 36.3568 810.021 34.4555 808.307C33.5048 807.45 32.7907 806.782 32.3149 806.33C32.077 806.104 31.8987 805.931 31.7803 805.816C31.7523 805.788 31.7276 805.764 31.7063 805.743L12.5126 721.29C11.827 716.504 10.312 709.86 8.58501 702.286C7.87454 699.171 7.12818 695.898 6.38891 692.532C3.84451 680.947 1.37506 668.228 0.687833 656.885C-0.00133538 645.509 1.11329 635.655 5.60018 629.686C7.82736 626.724 10.8964 624.704 15.0432 623.929C19.1806 623.155 24.4172 623.617 30.9845 625.669L119.189 713.872C119.227 713.996 119.302 714.078 119.321 714.099C119.383 714.165 119.454 714.212 119.501 714.241C119.555 714.274 119.616 714.306 119.678 714.336C119.923 714.452 120.311 714.597 120.813 714.763C121.827 715.097 123.381 715.539 125.364 716.031C129.333 717.016 135.048 718.208 141.653 719.146C154.83 721.018 171.624 721.889 185.179 718.032L346.585 710.346L415.108 727.368Z" fill="url(#paint0_linear)" stroke="#3DA100"/>
<path d="M608.063 697.918C607.59 696.626 607.109 695.314 606.617 693.986C586.369 711.05 562.841 720.983 503.335 739.713C496.465 752.544 493.467 762.851 492.906 771.83C492.342 780.847 494.232 788.566 497.183 796.207C498.812 800.424 500.771 804.628 502.816 809.016C508.167 820.498 514.106 833.241 516.244 850.775L516.268 850.97L516.153 851.129C510.249 859.278 506.609 866.252 505.057 872.162C503.508 878.06 504.046 882.869 506.454 886.75C508.87 890.644 513.22 893.685 519.458 895.933C525.694 898.18 533.77 899.617 543.564 900.337C582.748 903.215 648.992 894.582 733.574 881.128C747.962 871.538 758.777 865.095 767.316 860.041C767.677 859.827 768.035 859.616 768.388 859.407C776.405 854.663 782.347 851.147 787.4 847.289C797.907 839.269 804.593 829.755 817.901 804.528C825.885 766.993 825.765 745.222 825.61 717.181C825.588 713.165 825.565 709.02 825.565 704.682C825.565 687.395 822.684 659.57 816.459 641.376C814.904 636.831 813.147 632.908 811.187 629.907C809.223 626.9 807.089 624.869 804.8 624.023C802.543 623.189 800.048 623.474 797.261 625.286C794.466 627.103 791.399 630.445 788.065 635.675C783.381 651.297 775.564 674.167 764.647 694.691C753.73 715.216 739.648 733.522 722.392 739.768L722.336 739.788L722.277 739.794C672.817 745.343 647.104 742.651 632.112 734.045C618.416 726.184 613.741 713.42 608.063 697.918Z" fill="url(#paint1_linear)" stroke="#3DA100"/>
<path d="M342.588 835.031L342.713 834.946L342.771 834.805C346.255 826.289 350.872 818.434 355.969 810.528C357.976 807.416 360.063 804.288 362.184 801.11C365.437 796.233 368.771 791.236 372.024 785.983C382.731 768.697 392.669 748.484 396.578 719.828C453.572 731.415 484.662 732.7 538.179 727.454C551.92 753.136 554.306 771.656 552.54 789.734C551.662 798.722 549.757 807.608 547.691 817.239L547.62 817.572C545.531 827.317 543.291 837.819 541.815 849.909C538.954 861.32 530.705 874.031 518.595 887.287C506.482 900.546 490.546 914.31 472.387 927.815C436.103 954.801 390.99 980.723 349.903 999.495C307.659 997.57 284.67 993.858 268.91 984.395C253.176 974.946 244.582 959.73 231.27 934.492V792.36C233.032 783.951 235.027 777.544 237.449 772.916C239.874 768.283 242.704 765.475 246.119 764.192C249.54 762.907 253.641 763.118 258.679 764.725C263.698 766.325 269.593 769.293 276.583 773.456C297.817 801.835 311.75 818.866 321.597 827.987C326.522 832.549 330.471 835.175 333.838 836.23C337.247 837.297 340.043 836.746 342.588 835.031Z" fill="url(#paint2_linear)" stroke="#3DA100"/>
<path d="M381.091 17.1484L490.825 147.21C491.219 147.678 491.703 148.073 492.239 148.369C730.071 279.973 810.449 533.419 629.887 690.931C465.296 772.123 352.964 787.085 169.551 709.456C18.3483 621.7 -31.655 433.239 181.09 209.456L300.321 28.6869C322.194 -5.22461 356.81 -9.07042 381.091 17.1484Z" fill="url(#paint3_linear)"/>
<path d="M181.452 209.8L181.483 209.768L181.507 209.731L300.739 28.9622L300.742 28.9579C311.619 12.0939 325.625 2.76361 339.869 0.864393C354.103 -1.03346 368.669 4.47603 380.716 17.4799L490.442 147.533C490.877 148.048 491.409 148.481 491.997 148.806C610.821 214.558 690.268 310.722 717.478 410.067C744.677 509.37 719.7 611.891 629.607 690.511C547.363 731.077 478.218 755.073 406.748 759.252C335.272 763.432 261.423 747.794 169.775 709.007C94.3044 665.196 44.1356 596.286 39.3393 510.438C34.5417 424.567 75.1354 321.634 181.452 209.8Z" stroke="#E5C59A" stroke-opacity="0.35"/>
<path d="M723.076 453.845C715.384 649.999 605.466 696.153 446.153 696.153C250 696.153 157.692 591.916 157.692 453.845C157.692 315.774 286.84 199.997 446.153 199.997C605.466 199.997 711.538 338.461 723.076 453.845Z" fill="#FFF8EE"/>
<path d="M722.575 453.86C718.727 551.825 689.361 612.223 641.173 648.156C592.952 684.114 525.782 695.653 446.153 695.653C348.162 695.653 276.18 669.617 228.701 626.406C181.227 583.199 158.192 522.766 158.192 453.845C158.192 316.106 287.057 200.497 446.153 200.497C605.139 200.497 711.039 338.681 722.575 453.86Z" stroke="#B8A87F" stroke-opacity="0.41"/>
<ellipse cx="357.692" cy="377.421" rx="42.3077" ry="34.6154" fill="black"/>
<path d="M369.231 500.497C369.231 519.614 323.655 535.112 276.923 535.112C230.191 535.112 200 519.614 200 500.497C200 481.379 222.499 465.881 269.231 465.881C315.962 465.881 369.231 481.379 369.231 500.497Z" fill="#FFACAC"/>
<path d="M710.309 490.276C710.309 490.276 679.71 503.808 674.938 474.933C667.437 429.558 701.448 436.654 701.448 436.654C708.209 441.247 714.593 475.009 710.309 490.276Z" fill="#FFACAC"/>
<path d="M666.15 393.07C660.796 396.527 648.984 387.756 639.766 373.48C630.548 359.203 625.416 330.879 630.769 327.422C636.123 323.966 648.472 340.067 657.69 354.344C666.908 368.62 671.503 389.613 666.15 393.07Z" fill="black"/>
<path d="M423.74 441.447C449.653 452.26 469.298 458.011 486.968 456.437C504.764 454.852 520.471 445.85 538.51 427.351C556.244 440.796 570.204 447.585 584.559 447.124C598.767 446.668 613.241 439.113 632.033 424.206C623.603 507.534 610.36 557.888 593.219 587.959C584.614 603.055 575.035 613.025 564.601 619.494C554.18 625.954 542.875 628.942 530.772 630.029C515.06 628.35 502.364 625.293 491.689 619.28C481.012 613.266 472.318 604.274 464.658 590.661C449.376 563.501 438.257 518.048 423.74 441.447Z" fill="#C5186B" stroke="black"/>
<path d="M353.755 0.533936C374.609 104.026 391.602 150.12 433.855 205.452" stroke="#B8A87F" stroke-opacity="0.41"/>
<path d="M465.384 750C465.384 750 528.498 724.326 539.86 688.56" stroke="#B8A87F" stroke-opacity="0.41"/>
<defs>
<linearGradient id="paint0_linear" x1="292.307" y1="803.845" x2="38.4615" y2="938.46" gradientUnits="userSpaceOnUse">
<stop stop-color="#4BC700"/>
<stop offset="1" stop-color="#5EC8A8"/>
</linearGradient>
<linearGradient id="paint1_linear" x1="530.768" y1="734.614" x2="838.46" y2="673.076" gradientUnits="userSpaceOnUse">
<stop stop-color="#4BC700"/>
<stop offset="1" stop-color="#8DE755"/>
</linearGradient>
<linearGradient id="paint2_linear" x1="484.616" y1="757.693" x2="261.539" y2="1023.08" gradientUnits="userSpaceOnUse">
<stop stop-color="#4BC700"/>
<stop offset="1" stop-color="#83E448"/>
</linearGradient>
<linearGradient id="paint3_linear" x1="315.385" y1="-50" x2="438.462" y2="761.538" gradientUnits="userSpaceOnUse">
<stop stop-color="#FFF6DF"/>
<stop offset="1" stop-color="#D8CFB9"/>
</linearGradient>
</defs>
</svg>
